<?xml version="1.0" standalone="no"?>
<!DOCTYPE svg PUBLIC "-//W3C//DTD SVG 20010904//EN"
 "http://www.w3.org/TR/2001/REC-SVG-20010904/DTD/svg10.dtd">
<svg version="1.0" xmlns="http://www.w3.org/2000/svg"
 width="940.000000pt" height="940.000000pt" viewBox="0 0 940.000000 940.000000"
 preserveAspectRatio="xMidYMid meet">
<metadata>
Created by potrace 1.14, written by Peter Selinger 2001-2017
</metadata>
<g transform="translate(0.000000,940.000000) scale(0.100000,-0.100000)"
fill="#000000" stroke="none">
<path d="M3155 9373 c-755 -11 -1159 -65 -1509 -203 -350 -138 -627 -320 -881
-581 -239 -245 -405 -504 -535 -835 -114 -289 -159 -546 -192 -1084 -19 -309
-19 -3631 0 -3940 33 -538 78 -795 192 -1084 138 -350 320 -627 581 -881 245
-239 504 -405 835 -535 289 -114 546 -159 1084 -192 309 -19 3631 -19 3940 0
538 33 795 78 1084 192 331 130 590 296 835 535 261 254 443 531 581 881 114
289 159 546 192 1084 19 309 19 3631 0 3940 -33 538 -78 795 -192 1084 -130
331 -296 590 -535 835 -254 261 -531 443 -881 581 -282 111 -529 156 -1059
191 -154 11 -3003 21 -3540 12z m4085 -4549 c162 -11 338 -62 493 -142 213
-109 370 -266 479 -477 90 -176 127 -329 135 -560 14 -389 -89 -690 -316 -928
-135 -142 -280 -231 -477 -296 -190 -62 -274 -72 -716 -78 l-388 -6 0 -513 0
-514 -445 0 -445 0 0 1760 0 1760 223 3 c302 4 1364 -2 1457 -9z m-3097 -17
c308 -62 558 -192 707 -370 176 -208 251 -438 251 -767 0 -100 -6 -184 -16
-237 -63 -329 -245 -594 -508 -738 -37 -20 -67 -38 -67 -39 0 -1 144 -279 321
-617 177 -338 334 -640 350 -671 l29 -58 -502 0 -503 0 -305 610 -305 610
-225 -2 -225 -3 -3 -607 -2 -608 -445 0 -445 0 0 1760 0 1761 903 -4 c809 -2
911 -5 990 -20z"/>
<path d="M6455 4139 c-3 -8 -4 -261 -3 -564 l3 -550 265 0 c298 1 338 7 465
73 175 92 259 250 259 487 0 247 -88 404 -276 494 -46 21 -105 45 -133 51 -28
7 -164 14 -312 17 -216 4 -264 3 -268 -8z"/>
<path d="M3142 3668 l3 -493 310 1 c260 0 321 3 375 17 232 62 360 230 360
472 0 248 -146 429 -385 480 -53 11 -144 15 -368 15 l-297 0 2 -492z"/>
</g>
</svg>
